<?xml version="1.0" standalone="no"?>
<!DOCTYPE svg PUBLIC "-//W3C//DTD SVG 20010904//EN"
 "http://www.w3.org/TR/2001/REC-SVG-20010904/DTD/svg10.dtd">
<svg version="1.0" xmlns="http://www.w3.org/2000/svg"
 width="200.000000pt" height="200.000000pt" viewBox="0 0 200.000000 200.000000"
 preserveAspectRatio="xMidYMid meet">
<metadata>
Created by potrace 1.11, written by Peter Selinger 2001-2013
</metadata>
<g transform="translate(0.000000,200.000000) scale(0.100000,-0.100000)"
fill="#000000" stroke="none">
<path d="M1090 1741 c0 -27 13 -33 35 -17 21 15 12 36 -16 36 -12 0 -19 -7
-19 -19z"/>
<path d="M1133 1684 c1 -32 3 -34 35 -34 32 0 33 2 30 32 -3 29 -7 33 -34 34
-30 1 -32 -1 -31 -32z"/>
<path d="M1053 1611 c1 -40 1 -41 38 -41 39 0 47 9 44 50 -1 22 -7 25 -42 28
l-41 3 1 -40z"/>
<path d="M339 1606 c-120 -32 -214 -130 -236 -246 -3 -14 -5 -189 -5 -390 l-1
-365 41 3 c123 8 252 127 270 251 3 20 6 73 6 118 1 46 3 83 6 83 3 -1 39 -44
80 -97 41 -52 83 -105 93 -117 10 -11 60 -72 110 -134 l91 -113 40 6 c103 16
200 90 245 184 27 58 28 81 31 508 0 20 5 22 50 20 l50 -1 0 -134 0 -134 117
-136 c64 -76 140 -164 167 -197 107 -126 96 -119 157 -106 106 23 197 102 234
202 18 50 19 83 20 426 0 272 -3 374 -11 377 -18 7 -91 -12 -136 -35 -54 -28
-110 -86 -139 -146 -19 -39 -24 -70 -29 -162 l-5 -114 -30 34 c-16 20 -41 49
-55 66 -14 18 -83 105 -155 194 l-130 163 -3 -96 -3 -96 -49 1 c-54 0 -54 0
-50 73 l1 31 -53 -1 -53 -1 -2 -52 -2 -51 42 0 c23 0 48 -1 55 -1 8 -1 12 -18
12 -50 0 -53 -6 -58 -56 -56 -45 2 -51 10 -49 56 2 45 -1 47 -60 52 l-40 2 0
50 0 50 49 0 49 0 2 38 c0 21 -4 42 -10 47 -19 16 -97 -17 -138 -56 -52 -51
-67 -110 -64 -257 1 -64 -1 -117 -4 -117 -3 0 -90 99 -193 220 -103 121 -193
220 -199 219 -7 0 -33 -6 -58 -13z"/>
<path d="M99 446 c-3 -54 0 -196 5 -204 3 -6 14 -9 24 -8 14 2 18 16 22 75 l5
72 45 -38 c25 -21 59 -50 75 -65 31 -29 82 -52 88 -40 2 4 4 54 3 111 -1 100
-2 104 -23 107 -13 2 -23 1 -24 -4 -1 -4 -2 -35 -3 -70 -1 -34 -4 -63 -8 -65
-3 -1 -23 14 -45 33 -102 94 -161 129 -164 96z"/>
<path d="M427 446 c-14 -38 21 -45 201 -37 16 1 22 7 22 24 0 24 -1 24 -110
24 -70 0 -111 -4 -113 -11z"/>
<path d="M697 397 c13 -34 31 -82 40 -107 28 -81 50 -76 88 21 15 39 31 67 35
62 4 -4 17 -36 29 -70 23 -63 42 -81 60 -59 11 13 81 192 81 208 0 5 -10 8
-22 6 -16 -2 -26 -17 -42 -65 -12 -34 -24 -64 -27 -68 -4 -3 -17 20 -29 52
-42 107 -64 109 -99 9 -13 -36 -27 -63 -32 -60 -5 3 -9 10 -9 17 0 6 -10 35
-21 63 -18 44 -25 51 -49 52 l-28 1 25 -62z"/>
<path d="M1067 453 c-2 -5 -3 -55 -3 -113 1 -104 1 -104 26 -104 24 0 25 2 25
67 0 37 4 67 8 67 8 1 97 -68 108 -83 16 -22 72 -54 87 -50 15 3 17 18 16 111
-1 105 -2 107 -25 107 -25 0 -24 5 -28 -123 -1 -23 -4 -22 -53 19 -29 24 -55
46 -58 49 -42 44 -93 71 -103 53z"/>
<path d="M1392 347 l3 -111 110 -1 110 0 0 25 c0 25 -1 25 -84 25 -78 0 -84 2
-87 21 -3 17 2 21 24 22 76 0 79 1 78 25 -1 19 -7 22 -43 23 -61 2 -63 3 -63
18 0 11 18 14 78 14 107 0 104 -1 100 25 -3 21 -7 22 -116 23 l-113 2 3 -111z"/>
<path d="M1647 446 c-10 -26 12 -43 53 -40 47 3 51 -5 47 -103 -2 -57 0 -62
21 -66 29 -6 34 3 32 61 -4 109 -4 109 38 109 60 1 62 2 62 26 0 23 -1 23
-125 24 -81 0 -126 -4 -128 -11z"/>
<path d="M437 370 c-7 -3 -13 -13 -15 -22 -3 -20 20 -24 101 -20 48 3 57 7 57
23 0 10 -7 20 -15 20 -45 4 -117 3 -128 -1z"/>
<path d="M429 285 c-4 -1 -4 -45 0 -46 3 -1 53 -2 109 -3 85 -1 106 2 112 15
16 28 -5 35 -112 35 -60 0 -108 -1 -109 -1z"/>
</g>
</svg>
